<svg xmlns="http://www.w3.org/2000/svg" xmlns:xlink="http://www.w3.org/1999/xlink" width="500" zoomAndPan="magnify" viewBox="0 0 375 374.999991" height="500" preserveAspectRatio="xMidYMid meet" version="1.0"><defs><g/><clipPath id="e12ae6640a"><path d="M 136.550781 130.828125 L 238.550781 130.828125 L 238.550781 176.578125 L 136.550781 176.578125 Z M 136.550781 130.828125 " clip-rule="nonzero"/></clipPath></defs><rect x="-37.5" width="450" fill="#ffffff" y="-37.499999" height="449.999989" fill-opacity="1"/><rect x="-37.5" width="450" fill="#333231" y="-37.499999" height="449.999989" fill-opacity="1"/><g clip-path="url(#e12ae6640a)"><path fill="#bad7d8" d="M 207.253906 159.554688 L 206.703125 159.480469 L 206.703125 136.210938 L 206.046875 135.824219 C 200.445312 132.558594 194.035156 130.828125 187.511719 130.828125 C 180.96875 130.828125 174.554688 132.558594 168.953125 135.828125 L 168.296875 136.210938 L 168.296875 159.476562 L 167.746094 159.550781 C 157.441406 160.984375 148.152344 163.480469 140.132812 166.96875 C 138.871094 167.503906 137.667969 168.058594 136.550781 168.621094 L 136.550781 171.644531 C 137.5625 171.113281 138.597656 170.628906 139.621094 170.175781 C 147.492188 166.546875 157.160156 163.824219 167.5625 162.308594 L 168.296875 162.203125 L 168.296875 176.773438 L 170.984375 176.773438 L 170.984375 161.875 L 171.550781 161.808594 C 182.011719 160.59375 193.042969 160.59375 203.445312 161.808594 L 204.015625 161.875 L 204.015625 176.777344 L 206.699219 176.777344 L 206.699219 162.203125 L 207.433594 162.3125 C 217.839844 163.824219 227.503906 166.546875 235.386719 170.183594 C 236.40625 170.632812 237.4375 171.117188 238.445312 171.644531 L 238.445312 168.621094 C 237.386719 168.085938 236.214844 167.539062 234.863281 166.953125 C 226.847656 163.476562 217.558594 160.984375 207.253906 159.554688 Z M 170.984375 137.761719 L 171.320312 137.582031 C 181.308594 132.226562 193.707031 132.21875 203.675781 137.582031 L 204.015625 137.761719 L 204.015625 149.605469 L 202.855469 148.066406 C 199.175781 143.15625 193.578125 140.34375 187.5 140.34375 C 181.417969 140.34375 175.820312 143.15625 172.140625 148.066406 L 170.980469 149.605469 L 170.980469 137.761719 Z M 203.257812 159.054688 C 192.914062 157.929688 182.054688 157.929688 171.746094 159.054688 L 170.976562 159.140625 L 171.03125 158.375 C 171.644531 149.769531 178.882812 143.027344 187.5 143.027344 C 196.121094 143.027344 203.359375 149.769531 203.964844 158.375 L 204.019531 159.140625 Z M 203.257812 159.054688 " fill-opacity="1" fill-rule="nonzero"/></g><g fill="#ffffff" fill-opacity="1"><g transform="translate(88.008217, 207.347931)"><g><path d="M 2.71875 -19.265625 L 10.921875 -19.265625 C 12.023438 -19.265625 13.003906 -19.113281 13.859375 -18.8125 C 14.710938 -18.507812 15.410156 -18.09375 15.953125 -17.5625 C 16.785156 -16.695312 17.203125 -15.664062 17.203125 -14.46875 L 17.203125 -14.421875 C 17.203125 -13.796875 17.113281 -13.238281 16.9375 -12.75 C 16.757812 -12.269531 16.523438 -11.847656 16.234375 -11.484375 C 15.941406 -11.128906 15.613281 -10.828125 15.25 -10.578125 C 14.894531 -10.328125 14.523438 -10.117188 14.140625 -9.953125 C 14.710938 -9.796875 15.25 -9.582031 15.75 -9.3125 C 16.257812 -9.050781 16.695312 -8.734375 17.0625 -8.359375 C 17.425781 -7.992188 17.71875 -7.554688 17.9375 -7.046875 C 18.15625 -6.546875 18.265625 -5.96875 18.265625 -5.3125 L 18.265625 -5.25 C 18.265625 -4.425781 18.097656 -3.6875 17.765625 -3.03125 C 17.441406 -2.382812 16.972656 -1.835938 16.359375 -1.390625 C 15.742188 -0.941406 15.003906 -0.597656 14.140625 -0.359375 C 13.273438 -0.117188 12.320312 0 11.28125 0 L 2.71875 0 Z M 15 -14.171875 C 15 -15.117188 14.628906 -15.878906 13.890625 -16.453125 C 13.160156 -17.023438 12.109375 -17.3125 10.734375 -17.3125 L 4.875 -17.3125 L 4.875 -10.671875 L 10.5625 -10.671875 C 11.882812 -10.671875 12.953125 -10.957031 13.765625 -11.53125 C 14.585938 -12.113281 15 -12.972656 15 -14.109375 Z M 16.0625 -5.453125 C 16.0625 -6.492188 15.628906 -7.300781 14.765625 -7.875 C 13.910156 -8.457031 12.640625 -8.75 10.953125 -8.75 L 4.875 -8.75 L 4.875 -1.953125 L 11.34375 -1.953125 C 12.800781 -1.953125 13.953125 -2.253906 14.796875 -2.859375 C 15.640625 -3.460938 16.0625 -4.304688 16.0625 -5.390625 Z M 16.0625 -5.453125 "/></g></g></g><g fill="#ffffff" fill-opacity="1"><g transform="translate(107.866039, 207.347931)"><g><path d="M 2.71875 -19.265625 L 11 -19.265625 C 12.195312 -19.265625 13.257812 -19.09375 14.1875 -18.75 C 15.113281 -18.414062 15.878906 -17.941406 16.484375 -17.328125 C 16.960938 -16.859375 17.328125 -16.300781 17.578125 -15.65625 C 17.835938 -15.007812 17.96875 -14.300781 17.96875 -13.53125 L 17.96875 -13.484375 C 17.96875 -12.671875 17.835938 -11.945312 17.578125 -11.3125 C 17.328125 -10.6875 16.96875 -10.140625 16.5 -9.671875 C 16.03125 -9.203125 15.472656 -8.816406 14.828125 -8.515625 C 14.191406 -8.210938 13.492188 -8 12.734375 -7.875 L 18.65625 0 L 15.984375 0 L 10.40625 -7.484375 L 4.890625 -7.484375 L 4.890625 0 L 2.71875 0 Z M 10.8125 -9.4375 C 11.53125 -9.4375 12.191406 -9.523438 12.796875 -9.703125 C 13.398438 -9.890625 13.921875 -10.148438 14.359375 -10.484375 C 14.804688 -10.828125 15.148438 -11.242188 15.390625 -11.734375 C 15.640625 -12.222656 15.765625 -12.78125 15.765625 -13.40625 L 15.765625 -13.453125 C 15.765625 -14.648438 15.332031 -15.582031 14.46875 -16.25 C 13.613281 -16.914062 12.40625 -17.25 10.84375 -17.25 L 4.890625 -17.25 L 4.890625 -9.4375 Z M 10.8125 -9.4375 "/></g></g></g><g fill="#ffffff" fill-opacity="1"><g transform="translate(127.75136, 207.347931)"><g><path d="M 2.921875 -19.265625 L 5.09375 -19.265625 L 5.09375 0 L 2.921875 0 Z M 2.921875 -19.265625 "/></g></g></g><g fill="#ffffff" fill-opacity="1"><g transform="translate(135.754991, 207.347931)"><g><path d="M 2.71875 -19.265625 L 9.40625 -19.265625 C 10.914062 -19.265625 12.296875 -19.019531 13.546875 -18.53125 C 14.804688 -18.039062 15.890625 -17.363281 16.796875 -16.5 C 17.703125 -15.644531 18.398438 -14.632812 18.890625 -13.46875 C 19.390625 -12.300781 19.640625 -11.039062 19.640625 -9.6875 L 19.640625 -9.625 C 19.640625 -8.269531 19.390625 -7.003906 18.890625 -5.828125 C 18.398438 -4.660156 17.703125 -3.644531 16.796875 -2.78125 C 15.890625 -1.914062 14.804688 -1.234375 13.546875 -0.734375 C 12.296875 -0.242188 10.914062 0 9.40625 0 L 2.71875 0 Z M 4.890625 -17.25 L 4.890625 -2.015625 L 9.40625 -2.015625 C 10.613281 -2.015625 11.710938 -2.207031 12.703125 -2.59375 C 13.703125 -2.976562 14.546875 -3.507812 15.234375 -4.1875 C 15.921875 -4.863281 16.453125 -5.664062 16.828125 -6.59375 C 17.203125 -7.519531 17.390625 -8.515625 17.390625 -9.578125 L 17.390625 -9.625 C 17.390625 -10.6875 17.203125 -11.679688 16.828125 -12.609375 C 16.453125 -13.535156 15.921875 -14.34375 15.234375 -15.03125 C 14.546875 -15.71875 13.703125 -16.257812 12.703125 -16.65625 C 11.710938 -17.050781 10.613281 -17.25 9.40625 -17.25 Z M 4.890625 -17.25 "/></g></g></g><g fill="#ffffff" fill-opacity="1"><g transform="translate(157.26305, 207.347931)"><g><path d="M 11.671875 0.328125 C 10.148438 0.328125 8.785156 0.0703125 7.578125 -0.4375 C 6.378906 -0.945312 5.351562 -1.648438 4.5 -2.546875 C 3.644531 -3.453125 2.992188 -4.503906 2.546875 -5.703125 C 2.097656 -6.910156 1.875 -8.203125 1.875 -9.578125 L 1.875 -9.625 C 1.875 -10.945312 2.109375 -12.207031 2.578125 -13.40625 C 3.046875 -14.613281 3.703125 -15.675781 4.546875 -16.59375 C 5.390625 -17.507812 6.398438 -18.238281 7.578125 -18.78125 C 8.765625 -19.320312 10.082031 -19.59375 11.53125 -19.59375 C 12.332031 -19.59375 13.066406 -19.535156 13.734375 -19.421875 C 14.410156 -19.316406 15.035156 -19.148438 15.609375 -18.921875 C 16.191406 -18.703125 16.734375 -18.429688 17.234375 -18.109375 C 17.742188 -17.796875 18.234375 -17.4375 18.703125 -17.03125 L 17.3125 -15.375 C 16.9375 -15.707031 16.546875 -16.003906 16.140625 -16.265625 C 15.742188 -16.535156 15.3125 -16.765625 14.84375 -16.953125 C 14.375 -17.148438 13.859375 -17.300781 13.296875 -17.40625 C 12.742188 -17.519531 12.128906 -17.578125 11.453125 -17.578125 C 10.378906 -17.578125 9.394531 -17.363281 8.5 -16.9375 C 7.601562 -16.519531 6.832031 -15.953125 6.1875 -15.234375 C 5.550781 -14.523438 5.046875 -13.6875 4.671875 -12.71875 C 4.304688 -11.757812 4.125 -10.75 4.125 -9.6875 L 4.125 -9.625 C 4.125 -8.46875 4.300781 -7.40625 4.65625 -6.4375 C 5.019531 -5.46875 5.53125 -4.625 6.1875 -3.90625 C 6.851562 -3.1875 7.648438 -2.625 8.578125 -2.21875 C 9.515625 -1.820312 10.570312 -1.625 11.75 -1.625 C 12.851562 -1.625 13.890625 -1.8125 14.859375 -2.1875 C 15.828125 -2.5625 16.644531 -3.015625 17.3125 -3.546875 L 17.3125 -8.34375 L 11.453125 -8.34375 L 11.453125 -10.296875 L 19.40625 -10.296875 L 19.40625 -2.609375 C 18.5 -1.804688 17.390625 -1.113281 16.078125 -0.53125 C 14.765625 0.0390625 13.296875 0.328125 11.671875 0.328125 Z M 11.671875 0.328125 "/></g></g></g><g fill="#ffffff" fill-opacity="1"><g transform="translate(178.826109, 207.347931)"><g><path d="M 2.71875 -19.265625 L 16.640625 -19.265625 L 16.640625 -17.28125 L 4.890625 -17.28125 L 4.890625 -10.703125 L 15.40625 -10.703125 L 15.40625 -8.71875 L 4.890625 -8.71875 L 4.890625 -1.984375 L 16.78125 -1.984375 L 16.78125 0 L 2.71875 0 Z M 2.71875 -19.265625 "/></g></g></g><g fill="#ffffff" fill-opacity="1"><g transform="translate(197.253728, 207.347931)"><g/></g></g><g fill="#ffffff" fill-opacity="1"><g transform="translate(205.504895, 207.347931)"><g><path d="M 9.328125 0.28125 C 7.785156 0.28125 6.375 0.03125 5.09375 -0.46875 C 3.820312 -0.976562 2.609375 -1.757812 1.453125 -2.8125 L 2.8125 -4.40625 C 3.8125 -3.488281 4.828125 -2.800781 5.859375 -2.34375 C 6.890625 -1.894531 8.070312 -1.671875 9.40625 -1.671875 C 10.707031 -1.671875 11.75 -1.976562 12.53125 -2.59375 C 13.3125 -3.207031 13.703125 -3.992188 13.703125 -4.953125 L 13.703125 -5.015625 C 13.703125 -5.453125 13.628906 -5.847656 13.484375 -6.203125 C 13.335938 -6.554688 13.078125 -6.878906 12.703125 -7.171875 C 12.335938 -7.472656 11.828125 -7.742188 11.171875 -7.984375 C 10.523438 -8.222656 9.695312 -8.453125 8.6875 -8.671875 C 7.59375 -8.910156 6.632812 -9.179688 5.8125 -9.484375 C 5 -9.796875 4.328125 -10.171875 3.796875 -10.609375 C 3.265625 -11.054688 2.867188 -11.570312 2.609375 -12.15625 C 2.359375 -12.75 2.234375 -13.4375 2.234375 -14.21875 L 2.234375 -14.28125 C 2.234375 -15.03125 2.390625 -15.722656 2.703125 -16.359375 C 3.015625 -17.003906 3.453125 -17.5625 4.015625 -18.03125 C 4.585938 -18.5 5.257812 -18.863281 6.03125 -19.125 C 6.800781 -19.394531 7.644531 -19.53125 8.5625 -19.53125 C 9.96875 -19.53125 11.195312 -19.332031 12.25 -18.9375 C 13.3125 -18.550781 14.335938 -17.960938 15.328125 -17.171875 L 14.0625 -15.484375 C 13.164062 -16.222656 12.257812 -16.753906 11.34375 -17.078125 C 10.4375 -17.410156 9.488281 -17.578125 8.5 -17.578125 C 7.238281 -17.578125 6.238281 -17.28125 5.5 -16.6875 C 4.769531 -16.09375 4.40625 -15.351562 4.40625 -14.46875 L 4.40625 -14.421875 C 4.40625 -13.960938 4.476562 -13.550781 4.625 -13.1875 C 4.769531 -12.832031 5.035156 -12.503906 5.421875 -12.203125 C 5.804688 -11.898438 6.335938 -11.625 7.015625 -11.375 C 7.691406 -11.125 8.5625 -10.890625 9.625 -10.671875 C 11.769531 -10.191406 13.351562 -9.53125 14.375 -8.6875 C 15.394531 -7.84375 15.90625 -6.691406 15.90625 -5.234375 L 15.90625 -5.171875 C 15.90625 -4.347656 15.738281 -3.597656 15.40625 -2.921875 C 15.070312 -2.253906 14.617188 -1.679688 14.046875 -1.203125 C 13.472656 -0.734375 12.78125 -0.367188 11.96875 -0.109375 C 11.164062 0.148438 10.285156 0.28125 9.328125 0.28125 Z M 9.328125 0.28125 "/></g></g></g><g fill="#ffffff" fill-opacity="1"><g transform="translate(223.107395, 207.347931)"><g><path d="M 11.53125 0.328125 C 10.132812 0.328125 8.847656 0.0703125 7.671875 -0.4375 C 6.503906 -0.945312 5.488281 -1.644531 4.625 -2.53125 C 3.757812 -3.425781 3.082031 -4.476562 2.59375 -5.6875 C 2.113281 -6.90625 1.875 -8.203125 1.875 -9.578125 L 1.875 -9.625 C 1.875 -10.988281 2.113281 -12.273438 2.59375 -13.484375 C 3.082031 -14.691406 3.757812 -15.75 4.625 -16.65625 C 5.488281 -17.5625 6.515625 -18.273438 7.703125 -18.796875 C 8.898438 -19.328125 10.203125 -19.59375 11.609375 -19.59375 C 12.492188 -19.59375 13.285156 -19.519531 13.984375 -19.375 C 14.691406 -19.226562 15.347656 -19.019531 15.953125 -18.75 C 16.554688 -18.488281 17.113281 -18.164062 17.625 -17.78125 C 18.144531 -17.40625 18.644531 -16.988281 19.125 -16.53125 L 17.640625 -14.9375 C 16.816406 -15.707031 15.929688 -16.335938 14.984375 -16.828125 C 14.035156 -17.328125 12.898438 -17.578125 11.578125 -17.578125 C 10.515625 -17.578125 9.53125 -17.375 8.625 -16.96875 C 7.71875 -16.570312 6.925781 -16.015625 6.25 -15.296875 C 5.582031 -14.578125 5.0625 -13.738281 4.6875 -12.78125 C 4.3125 -11.820312 4.125 -10.789062 4.125 -9.6875 L 4.125 -9.625 C 4.125 -8.507812 4.3125 -7.46875 4.6875 -6.5 C 5.0625 -5.539062 5.582031 -4.703125 6.25 -3.984375 C 6.925781 -3.273438 7.71875 -2.710938 8.625 -2.296875 C 9.53125 -1.878906 10.515625 -1.671875 11.578125 -1.671875 C 12.898438 -1.671875 14.035156 -1.914062 14.984375 -2.40625 C 15.941406 -2.894531 16.878906 -3.578125 17.796875 -4.453125 L 19.234375 -3.046875 C 18.734375 -2.535156 18.210938 -2.070312 17.671875 -1.65625 C 17.128906 -1.25 16.546875 -0.898438 15.921875 -0.609375 C 15.304688 -0.316406 14.640625 -0.0859375 13.921875 0.078125 C 13.203125 0.242188 12.40625 0.328125 11.53125 0.328125 Z M 11.53125 0.328125 "/></g></g></g><g fill="#ffffff" fill-opacity="1"><g transform="translate(243.515288, 207.347931)"><g><path d="M 9.84375 -19.40625 L 11.890625 -19.40625 L 20.671875 0 L 18.328125 0 L 16.0625 -5.09375 L 5.578125 -5.09375 L 3.296875 0 L 1.078125 0 Z M 15.21875 -7.046875 L 10.84375 -16.859375 L 6.4375 -7.046875 Z M 15.21875 -7.046875 "/></g></g></g><g fill="#ffffff" fill-opacity="1"><g transform="translate(265.243371, 207.347931)"><g><path d="M 2.71875 -19.265625 L 4.765625 -19.265625 L 16.890625 -3.828125 L 16.890625 -19.265625 L 19.015625 -19.265625 L 19.015625 0 L 17.28125 0 L 4.84375 -15.796875 L 4.84375 0 L 2.71875 0 Z M 2.71875 -19.265625 "/></g></g></g></svg>