<svg xmlns="http://www.w3.org/2000/svg" xmlns:xlink="http://www.w3.org/1999/xlink" width="500" zoomAndPan="magnify" viewBox="0 0 375 374.999991" height="500" preserveAspectRatio="xMidYMid meet" version="1.0"><defs><clipPath id="0f3b71fcb4"><path d="M 45.9375 123.664062 L 328.6875 123.664062 L 328.6875 251.164062 L 45.9375 251.164062 Z M 45.9375 123.664062 " clip-rule="nonzero"/></clipPath></defs><rect x="-37.5" width="450" fill="#ffffff" y="-37.499999" height="449.999989" fill-opacity="1"/><rect x="-37.5" width="450" fill="#333231" y="-37.499999" height="449.999989" fill-opacity="1"/><g clip-path="url(#0f3b71fcb4)"><path fill="#bad7d8" d="M 242.390625 203.476562 L 240.851562 203.265625 L 240.851562 138.617188 L 239.027344 137.539062 C 223.464844 128.46875 205.652344 123.664062 187.53125 123.664062 C 169.355469 123.664062 151.527344 128.46875 135.960938 137.546875 L 134.148438 138.617188 L 134.148438 203.253906 L 132.609375 203.46875 C 103.984375 207.449219 78.175781 214.378906 55.894531 224.074219 C 52.382812 225.5625 49.046875 227.101562 45.941406 228.667969 L 45.941406 237.066406 C 48.753906 235.597656 51.621094 234.242188 54.46875 232.984375 C 76.34375 222.898438 103.195312 215.332031 132.105469 211.128906 L 134.148438 210.828125 L 134.148438 251.320312 L 141.609375 251.320312 L 141.609375 209.925781 L 143.183594 209.742188 C 172.25 206.363281 202.902344 206.363281 231.808594 209.742188 L 233.382812 209.925781 L 233.382812 251.328125 L 240.84375 251.328125 L 240.84375 210.839844 L 242.886719 211.140625 C 271.792969 215.34375 298.648438 222.90625 320.546875 233.011719 C 323.386719 234.25 326.246094 235.605469 329.050781 237.066406 L 329.050781 228.667969 C 326.113281 227.179688 322.847656 225.660156 319.097656 224.03125 C 296.824219 214.371094 271.015625 207.449219 242.390625 203.476562 Z M 141.609375 142.925781 L 142.546875 142.421875 C 170.292969 127.539062 204.742188 127.523438 232.445312 142.421875 L 233.382812 142.925781 L 233.382812 175.835938 L 230.164062 171.550781 C 219.941406 157.917969 204.386719 150.09375 187.496094 150.09375 C 170.605469 150.09375 155.046875 157.917969 144.820312 171.550781 L 141.597656 175.835938 L 141.597656 142.925781 Z M 231.277344 202.085938 C 202.539062 198.957031 172.375 198.964844 143.722656 202.085938 L 141.589844 202.328125 L 141.742188 200.195312 C 143.449219 176.285156 163.550781 157.554688 187.503906 157.554688 C 211.457031 157.554688 231.558594 176.285156 233.25 200.195312 L 233.402344 202.328125 Z M 231.277344 202.085938 " fill-opacity="1" fill-rule="nonzero"/></g></svg>